  0
SECTION
  2
HEADER
  9
$ACADVER
  1
AC1014
  9
$HANDSEED
  5
FFFF
  9
$MEASUREMENT
 70
     1
  0
ENDSEC
  0
SECTION
  2
TABLES
  0
TABLE
  2
VPORT
  5
8
330
0
100
AcDbSymbolTable
 70
     4
  0
VPORT
  5
2E
330
8
100
AcDbSymbolTableRecord
100
AcDbViewportTableRecord
  2
*ACTIVE
 70
     0
 10
0.0
 20
0.0
 11
1.0
 21
1.0
 12
210.0
 22
148.5
 13
0.0
 23
0.0
 14
10.0
 24
10.0
 15
10.0
 25
10.0
 16
0.0
 26
0.0
 36
1.0
 17
0.0
 27
0.0
 37
0.0
 40
341.0
 41
1.24
 42
50.0
 43
0.0
 44
0.0
 50
0.0
 51
0.0
 71
     0
 72
   100
 73
     1
 74
     3
 75
     0
 76
     0
 77
     0
 78
     0
  0
ENDTAB
  0
TABLE
  2
LTYPE
  5
5
330
0
100
AcDbSymbolTable
 70
     1
  0
LTYPE
  5
14
330
5
100
AcDbSymbolTableRecord
100
AcDbLinetypeTableRecord
  2
BYBLOCK
 70
     0
  3

 72
    65
 73
     0
 40
0.0
  0
LTYPE
  5
15
330
5
100
AcDbSymbolTableRecord
100
AcDbLinetypeTableRecord
  2
BYLAYER
 70
     0
  3

 72
    65
 73
     0
 40
0.0
  0
LTYPE
  5
16
330
5
100
AcDbSymbolTableRecord
100
AcDbLinetypeTableRecord
  2
CONTINUOUS
 70
     0
  3
Solid line
 72
    65
 73
     0
 40
0.0
  0
ENDTAB
  0
TABLE
  2
LAYER
  5
2
100
AcDbSymbolTable
 70
2
  0
LAYER
  5
50
100
AcDbSymbolTableRecord
100
AcDbLayerTableRecord
  2
0
 70
0
  6
CONTINUOUS
  0
LAYER
  5
51
100
AcDbSymbolTableRecord
100
AcDbLayerTableRecord
  2
Calque_1
 70
0
  6
CONTINUOUS
  0
ENDTAB
  0
TABLE
  2
STYLE
  5
3
330
0
100
AcDbSymbolTable
 70
     1
  0
STYLE
  5
11
330
3
100
AcDbSymbolTableRecord
100
AcDbTextStyleTableRecord
  2
STANDARD
 70
     0
 40
0.0
 41
1.0
 50
0.0
 71
     0
 42
2.5
  3
txt
  4

  0
ENDTAB
  0
TABLE
  2
VIEW
  5
6
330
0
100
AcDbSymbolTable
 70
     0
  0
ENDTAB
  0
TABLE
  2
UCS
  5
7
330
0
100
AcDbSymbolTable
 70
     0
  0
ENDTAB
  0
TABLE
  2
APPID
  5
9
330
0
100
AcDbSymbolTable
 70
     2
  0
APPID
  5
12
330
9
100
AcDbSymbolTableRecord
100
AcDbRegAppTableRecord
  2
ACAD
 70
     0
  0
ENDTAB
  0
TABLE
  2
DIMSTYLE
  5
A
330
0
100
AcDbSymbolTable
 70
     1
  0
DIMSTYLE
105
27
330
A
100
AcDbSymbolTableRecord
100
AcDbDimStyleTableRecord
  2
ISO-25
 70
     0
  3

  4

  5

  6

  7

 40
1.0
 41
2.5
 42
0.625
 43
3.75
 44
1.25
 45
0.0
 46
0.0
 47
0.0
 48
0.0
140
2.5
141
2.5
142
0.0
143
0.03937007874016
144
1.0
145
0.0
146
1.0
147
0.625
 71
     0
 72
     0
 73
     0
 74
     0
 75
     0
 76
     0
 77
     1
 78
     8
170
     0
171
     3
172
     1
173
     0
174
     0
175
     0
176
     0
177
     0
178
     0
270
     2
271
     2
272
     2
273
     2
274
     3
340
11
275
     0
280
     0
281
     0
282
     0
283
     0
284
     8
285
     0
286
     0
287
     3
288
     0
  0
ENDTAB
  0
TABLE
  2
BLOCK_RECORD
  5
1
330
0
100
AcDbSymbolTable
 70
     1
  0
BLOCK_RECORD
  5
1F
330
1
100
AcDbSymbolTableRecord
100
AcDbBlockTableRecord
  2
*MODEL_SPACE
  0
BLOCK_RECORD
  5
1B
330
1
100
AcDbSymbolTableRecord
100
AcDbBlockTableRecord
  2
*PAPER_SPACE
  0
ENDTAB
  0
ENDSEC
  0
SECTION
  2
BLOCKS
  0
BLOCK
  5
20
330
1F
100
AcDbEntity
  8
0
100
AcDbBlockBegin
  2
*MODEL_SPACE
 70
     0
 10
0.0
 20
0.0
 30
0.0
  3
*MODEL_SPACE
  1

  0
ENDBLK
  5
21
330
1F
100
AcDbEntity
  8
0
100
AcDbBlockEnd
  0
BLOCK
  5
1C
330
1B
100
AcDbEntity
 67
     1
  8
0
100
AcDbBlockBegin
  2
*PAPER_SPACE
  1

  0
ENDBLK
  5
1D
330
1B
100
AcDbEntity
 67
     1
  8
0
100
AcDbBlockEnd
  0
ENDSEC
  0
SECTION
  2
ENTITIES
  0
LINE
  5
100
100
AcDbEntity
  8
Calque_1
 62
1
100
AcDbLine
 10
52.842021
 20
331.124437
 30
0.0
 11
54.719433
 21
334.390442
 31
0.0
  0
LINE
  5
101
100
AcDbEntity
  8
Calque_1
 62
1
100
AcDbLine
 10
54.719433
 20
334.390442
 30
0.0
 11
58.486582
 21
334.383326
 31
0.0
  0
LINE
  5
102
100
AcDbEntity
  8
Calque_1
 62
1
100
AcDbLine
 10
58.486582
 20
334.383326
 30
0.0
 11
60.376320
 21
331.110205
 31
0.0
  0
LINE
  5
103
100
AcDbEntity
  8
Calque_1
 62
1
100
AcDbLine
 10
60.376320
 20
331.110205
 30
0.0
 11
58.498908
 21
327.844201
 31
0.0
  0
LINE
  5
104
100
AcDbEntity
  8
Calque_1
 62
1
100
AcDbLine
 10
58.498908
 20
327.844201
 30
0.0
 11
54.731758
 21
327.851316
 31
0.0
  0
LINE
  5
105
100
AcDbEntity
  8
Calque_1
 62
1
100
AcDbLine
 10
54.731758
 20
327.851316
 30
0.0
 11
52.842021
 21
331.124437
 31
0.0
  0
LINE
  5
106
100
AcDbEntity
  8
Calque_1
 62
1
100
AcDbLine
 10
19.515443
 20
260.351320
 30
0.0
 11
15.748293
 21
260.344204
 31
0.0
  0
LINE
  5
107
100
AcDbEntity
  8
Calque_1
 62
1
100
AcDbLine
 10
15.748293
 20
260.344204
 30
0.0
 11
13.870881
 21
263.610209
 31
0.0
  0
LINE
  5
108
100
AcDbEntity
  8
Calque_1
 62
1
100
AcDbLine
 10
13.870881
 20
263.610209
 30
0.0
 11
15.760618
 21
266.883330
 31
0.0
  0
LINE
  5
109
100
AcDbEntity
  8
Calque_1
 62
1
100
AcDbLine
 10
15.760618
 20
266.883330
 30
0.0
 11
19.527767
 21
266.890446
 31
0.0
  0
LINE
  5
10a
100
AcDbEntity
  8
Calque_1
 62
1
100
AcDbLine
 10
19.527767
 20
266.890446
 30
0.0
 11
21.405180
 21
263.624441
 31
0.0
  0
LINE
  5
10b
100
AcDbEntity
  8
Calque_1
 62
1
100
AcDbLine
 10
21.405180
 20
263.624441
 30
0.0
 11
19.515443
 21
260.351320
 31
0.0
  0
LINE
  5
10c
100
AcDbEntity
  8
Calque_1
 62
1
100
AcDbLine
 10
97.470050
 20
266.876214
 30
0.0
 11
99.359787
 21
263.617325
 31
0.0
  0
LINE
  5
10d
100
AcDbEntity
  8
Calque_1
 62
1
100
AcDbLine
 10
99.359787
 20
263.617325
 30
0.0
 11
97.470050
 21
260.358436
 31
0.0
  0
LINE
  5
10e
100
AcDbEntity
  8
Calque_1
 62
1
100
AcDbLine
 10
97.470050
 20
260.358436
 30
0.0
 11
93.690576
 21
260.358436
 31
0.0
  0
LINE
  5
10f
100
AcDbEntity
  8
Calque_1
 62
1
100
AcDbLine
 10
93.690576
 20
260.358436
 30
0.0
 11
91.800839
 21
263.617325
 31
0.0
  0
LINE
  5
110
100
AcDbEntity
  8
Calque_1
 62
1
100
AcDbLine
 10
91.800839
 20
263.617325
 30
0.0
 11
93.690576
 21
266.876214
 31
0.0
  0
LINE
  5
111
100
AcDbEntity
  8
Calque_1
 62
1
100
AcDbLine
 10
93.690576
 20
266.876214
 30
0.0
 11
97.470050
 21
266.876214
 31
0.0
  0
LINE
  5
112
100
AcDbEntity
  8
Calque_1
 62
1
100
AcDbLine
 10
51.232849
 20
446.683142
 30
0.0
 11
53.110262
 21
449.949146
 31
0.0
  0
LINE
  5
113
100
AcDbEntity
  8
Calque_1
 62
1
100
AcDbLine
 10
53.110262
 20
449.949146
 30
0.0
 11
56.877411
 21
449.942030
 31
0.0
  0
LINE
  5
114
100
AcDbEntity
  8
Calque_1
 62
1
100
AcDbLine
 10
56.877411
 20
449.942030
 30
0.0
 11
58.767148
 21
446.668910
 31
0.0
  0
LINE
  5
115
100
AcDbEntity
  8
Calque_1
 62
1
100
AcDbLine
 10
58.767148
 20
446.668910
 30
0.0
 11
56.889736
 21
443.402905
 31
0.0
  0
LINE
  5
116
100
AcDbEntity
  8
Calque_1
 62
1
100
AcDbLine
 10
56.889736
 20
443.402905
 30
0.0
 11
53.122587
 21
443.410021
 31
0.0
  0
LINE
  5
117
100
AcDbEntity
  8
Calque_1
 62
1
100
AcDbLine
 10
53.122587
 20
443.410021
 30
0.0
 11
51.232849
 21
446.683142
 31
0.0
  0
LINE
  5
118
100
AcDbEntity
  8
Calque_1
 62
1
100
AcDbLine
 10
17.906271
 20
375.910024
 30
0.0
 11
14.139121
 21
375.902908
 31
0.0
  0
LINE
  5
119
100
AcDbEntity
  8
Calque_1
 62
1
100
AcDbLine
 10
14.139121
 20
375.902908
 30
0.0
 11
12.261709
 21
379.168913
 31
0.0
  0
LINE
  5
11a
100
AcDbEntity
  8
Calque_1
 62
1
100
AcDbLine
 10
12.261709
 20
379.168913
 30
0.0
 11
14.151447
 21
382.442034
 31
0.0
  0
LINE
  5
11b
100
AcDbEntity
  8
Calque_1
 62
1
100
AcDbLine
 10
14.151447
 20
382.442034
 30
0.0
 11
17.918596
 21
382.449149
 31
0.0
  0
LINE
  5
11c
100
AcDbEntity
  8
Calque_1
 62
1
100
AcDbLine
 10
17.918596
 20
382.449149
 30
0.0
 11
19.796008
 21
379.183145
 31
0.0
  0
LINE
  5
11d
100
AcDbEntity
  8
Calque_1
 62
1
100
AcDbLine
 10
19.796008
 20
379.183145
 30
0.0
 11
17.906271
 21
375.910024
 31
0.0
  0
LINE
  5
11e
100
AcDbEntity
  8
Calque_1
 62
1
100
AcDbLine
 10
95.860878
 20
382.434918
 30
0.0
 11
97.750616
 21
379.176029
 31
0.0
  0
LINE
  5
11f
100
AcDbEntity
  8
Calque_1
 62
1
100
AcDbLine
 10
97.750616
 20
379.176029
 30
0.0
 11
95.860878
 21
375.917140
 31
0.0
  0
LINE
  5
120
100
AcDbEntity
  8
Calque_1
 62
1
100
AcDbLine
 10
95.860878
 20
375.917140
 30
0.0
 11
92.081404
 21
375.917140
 31
0.0
  0
LINE
  5
121
100
AcDbEntity
  8
Calque_1
 62
1
100
AcDbLine
 10
92.081404
 20
375.917140
 30
0.0
 11
90.191667
 21
379.176029
 31
0.0
  0
LINE
  5
122
100
AcDbEntity
  8
Calque_1
 62
1
100
AcDbLine
 10
90.191667
 20
379.176029
 30
0.0
 11
92.081404
 21
382.434918
 31
0.0
  0
LINE
  5
123
100
AcDbEntity
  8
Calque_1
 62
1
100
AcDbLine
 10
92.081404
 20
382.434918
 30
0.0
 11
95.860878
 21
382.434918
 31
0.0
  0
LINE
  5
124
100
AcDbEntity
  8
Calque_1
 62
1
100
AcDbLine
 10
52.842021
 20
215.565775
 30
0.0
 11
54.719433
 21
218.831780
 31
0.0
  0
LINE
  5
125
100
AcDbEntity
  8
Calque_1
 62
1
100
AcDbLine
 10
54.719433
 20
218.831780
 30
0.0
 11
58.486582
 21
218.824664
 31
0.0
  0
LINE
  5
126
100
AcDbEntity
  8
Calque_1
 62
1
100
AcDbLine
 10
58.486582
 20
218.824664
 30
0.0
 11
60.376320
 21
215.551544
 31
0.0
  0
LINE
  5
127
100
AcDbEntity
  8
Calque_1
 62
1
100
AcDbLine
 10
60.376320
 20
215.551544
 30
0.0
 11
58.498908
 21
212.285539
 31
0.0
  0
LINE
  5
128
100
AcDbEntity
  8
Calque_1
 62
1
100
AcDbLine
 10
58.498908
 20
212.285539
 30
0.0
 11
54.731758
 21
212.292655
 31
0.0
  0
LINE
  5
129
100
AcDbEntity
  8
Calque_1
 62
1
100
AcDbLine
 10
54.731758
 20
212.292655
 30
0.0
 11
52.842021
 21
215.565775
 31
0.0
  0
LINE
  5
12a
100
AcDbEntity
  8
Calque_1
 62
1
100
AcDbLine
 10
19.515443
 20
144.792658
 30
0.0
 11
15.748293
 21
144.785543
 31
0.0
  0
LINE
  5
12b
100
AcDbEntity
  8
Calque_1
 62
1
100
AcDbLine
 10
15.748293
 20
144.785543
 30
0.0
 11
13.870881
 21
148.051547
 31
0.0
  0
LINE
  5
12c
100
AcDbEntity
  8
Calque_1
 62
1
100
AcDbLine
 10
13.870881
 20
148.051547
 30
0.0
 11
15.760618
 21
151.324668
 31
0.0
  0
LINE
  5
12d
100
AcDbEntity
  8
Calque_1
 62
1
100
AcDbLine
 10
15.760618
 20
151.324668
 30
0.0
 11
19.527767
 21
151.331784
 31
0.0
  0
LINE
  5
12e
100
AcDbEntity
  8
Calque_1
 62
1
100
AcDbLine
 10
19.527767
 20
151.331784
 30
0.0
 11
21.405180
 21
148.065779
 31
0.0
  0
LINE
  5
12f
100
AcDbEntity
  8
Calque_1
 62
1
100
AcDbLine
 10
21.405180
 20
148.065779
 30
0.0
 11
19.515443
 21
144.792658
 31
0.0
  0
LINE
  5
130
100
AcDbEntity
  8
Calque_1
 62
1
100
AcDbLine
 10
97.470050
 20
151.317552
 30
0.0
 11
99.359787
 21
148.058663
 31
0.0
  0
LINE
  5
131
100
AcDbEntity
  8
Calque_1
 62
1
100
AcDbLine
 10
99.359787
 20
148.058663
 30
0.0
 11
97.470050
 21
144.799774
 31
0.0
  0
LINE
  5
132
100
AcDbEntity
  8
Calque_1
 62
1
100
AcDbLine
 10
97.470050
 20
144.799774
 30
0.0
 11
93.690576
 21
144.799774
 31
0.0
  0
LINE
  5
133
100
AcDbEntity
  8
Calque_1
 62
1
100
AcDbLine
 10
93.690576
 20
144.799774
 30
0.0
 11
91.800839
 21
148.058663
 31
0.0
  0
LINE
  5
134
100
AcDbEntity
  8
Calque_1
 62
1
100
AcDbLine
 10
91.800839
 20
148.058663
 30
0.0
 11
93.690576
 21
151.317552
 31
0.0
  0
LINE
  5
135
100
AcDbEntity
  8
Calque_1
 62
1
100
AcDbLine
 10
93.690576
 20
151.317552
 30
0.0
 11
97.470050
 21
151.317552
 31
0.0
  0
LINE
  5
136
100
AcDbEntity
  8
Calque_1
 62
1
100
AcDbLine
 10
54.452078
 20
100.007101
 30
0.0
 11
56.329490
 21
103.273106
 31
0.0
  0
LINE
  5
137
100
AcDbEntity
  8
Calque_1
 62
1
100
AcDbLine
 10
56.329490
 20
103.273106
 30
0.0
 11
60.096639
 21
103.265990
 31
0.0
  0
LINE
  5
138
100
AcDbEntity
  8
Calque_1
 62
1
100
AcDbLine
 10
60.096639
 20
103.265990
 30
0.0
 11
61.986377
 21
99.992869
 31
0.0
  0
LINE
  5
139
100
AcDbEntity
  8
Calque_1
 62
1
100
AcDbLine
 10
61.986377
 20
99.992869
 30
0.0
 11
60.108964
 21
96.726865
 31
0.0
  0
LINE
  5
13a
100
AcDbEntity
  8
Calque_1
 62
1
100
AcDbLine
 10
60.108964
 20
96.726865
 30
0.0
 11
56.341815
 21
96.733980
 31
0.0
  0
LINE
  5
13b
100
AcDbEntity
  8
Calque_1
 62
1
100
AcDbLine
 10
56.341815
 20
96.733980
 30
0.0
 11
54.452078
 21
100.007101
 31
0.0
  0
LINE
  5
13c
100
AcDbEntity
  8
Calque_1
 62
1
100
AcDbLine
 10
21.125500
 20
29.233984
 30
0.0
 11
17.358350
 21
29.226868
 31
0.0
  0
LINE
  5
13d
100
AcDbEntity
  8
Calque_1
 62
1
100
AcDbLine
 10
17.358350
 20
29.226868
 30
0.0
 11
15.480938
 21
32.492873
 31
0.0
  0
LINE
  5
13e
100
AcDbEntity
  8
Calque_1
 62
1
100
AcDbLine
 10
15.480938
 20
32.492873
 30
0.0
 11
17.370675
 21
35.765994
 31
0.0
  0
LINE
  5
13f
100
AcDbEntity
  8
Calque_1
 62
1
100
AcDbLine
 10
17.370675
 20
35.765994
 30
0.0
 11
21.137824
 21
35.773109
 31
0.0
  0
LINE
  5
140
100
AcDbEntity
  8
Calque_1
 62
1
100
AcDbLine
 10
21.137824
 20
35.773109
 30
0.0
 11
23.015237
 21
32.507105
 31
0.0
  0
LINE
  5
141
100
AcDbEntity
  8
Calque_1
 62
1
100
AcDbLine
 10
23.015237
 20
32.507105
 30
0.0
 11
21.125500
 21
29.233984
 31
0.0
  0
LINE
  5
142
100
AcDbEntity
  8
Calque_1
 62
1
100
AcDbLine
 10
99.080107
 20
35.758878
 30
0.0
 11
100.969844
 21
32.499989
 31
0.0
  0
LINE
  5
143
100
AcDbEntity
  8
Calque_1
 62
1
100
AcDbLine
 10
100.969844
 20
32.499989
 30
0.0
 11
99.080107
 21
29.241100
 31
0.0
  0
LINE
  5
144
100
AcDbEntity
  8
Calque_1
 62
1
100
AcDbLine
 10
99.080107
 20
29.241100
 30
0.0
 11
95.300633
 21
29.241100
 31
0.0
  0
LINE
  5
145
100
AcDbEntity
  8
Calque_1
 62
1
100
AcDbLine
 10
95.300633
 20
29.241100
 30
0.0
 11
93.410896
 21
32.499989
 31
0.0
  0
LINE
  5
146
100
AcDbEntity
  8
Calque_1
 62
1
100
AcDbLine
 10
93.410896
 20
32.499989
 30
0.0
 11
95.300633
 21
35.758878
 31
0.0
  0
LINE
  5
147
100
AcDbEntity
  8
Calque_1
 62
1
100
AcDbLine
 10
95.300633
 20
35.758878
 30
0.0
 11
99.080107
 21
35.758878
 31
0.0
  0
ENDSEC
  0
SECTION
  2
OBJECTS
  0
DICTIONARY
  5
C
330
0
100
AcDbDictionary
  3
ACAD_GROUP
350
D
  3
ACAD_MLINESTYLE
350
17
  0
DICTIONARY
  5
D
330
C
100
AcDbDictionary
  0
DICTIONARY
  5
1A
330
C
100
AcDbDictionary
  0
DICTIONARY
  5
17
330
C
100
AcDbDictionary
  3
STANDARD
350
18
  0
DICTIONARY
  5
19
330
C
100
AcDbDictionary
  0
ENDSEC
  0
EOF
