  0
SECTION
  2
HEADER
  9
$ACADVER
  1
AC1014
  9
$HANDSEED
  5
FFFF
  9
$MEASUREMENT
 70
     1
  0
ENDSEC
  0
SECTION
  2
TABLES
  0
TABLE
  2
VPORT
  5
8
330
0
100
AcDbSymbolTable
 70
     4
  0
VPORT
  5
2E
330
8
100
AcDbSymbolTableRecord
100
AcDbViewportTableRecord
  2
*ACTIVE
 70
     0
 10
0.0
 20
0.0
 11
1.0
 21
1.0
 12
210.0
 22
148.5
 13
0.0
 23
0.0
 14
10.0
 24
10.0
 15
10.0
 25
10.0
 16
0.0
 26
0.0
 36
1.0
 17
0.0
 27
0.0
 37
0.0
 40
341.0
 41
1.24
 42
50.0
 43
0.0
 44
0.0
 50
0.0
 51
0.0
 71
     0
 72
   100
 73
     1
 74
     3
 75
     0
 76
     0
 77
     0
 78
     0
  0
ENDTAB
  0
TABLE
  2
LTYPE
  5
5
330
0
100
AcDbSymbolTable
 70
     1
  0
LTYPE
  5
14
330
5
100
AcDbSymbolTableRecord
100
AcDbLinetypeTableRecord
  2
BYBLOCK
 70
     0
  3

 72
    65
 73
     0
 40
0.0
  0
LTYPE
  5
15
330
5
100
AcDbSymbolTableRecord
100
AcDbLinetypeTableRecord
  2
BYLAYER
 70
     0
  3

 72
    65
 73
     0
 40
0.0
  0
LTYPE
  5
16
330
5
100
AcDbSymbolTableRecord
100
AcDbLinetypeTableRecord
  2
CONTINUOUS
 70
     0
  3
Solid line
 72
    65
 73
     0
 40
0.0
  0
ENDTAB
  0
TABLE
  2
LAYER
  5
2
100
AcDbSymbolTable
 70
3
  0
LAYER
  5
50
100
AcDbSymbolTableRecord
100
AcDbLayerTableRecord
  2
0
 70
0
  6
CONTINUOUS
  0
LAYER
  5
51
100
AcDbSymbolTableRecord
100
AcDbLayerTableRecord
  2
Calque_1
 70
0
  6
CONTINUOUS
  0
LAYER
  5
52
100
AcDbSymbolTableRecord
100
AcDbLayerTableRecord
  2
Image
 70
0
  6
CONTINUOUS
  0
ENDTAB
  0
TABLE
  2
STYLE
  5
3
330
0
100
AcDbSymbolTable
 70
     1
  0
STYLE
  5
11
330
3
100
AcDbSymbolTableRecord
100
AcDbTextStyleTableRecord
  2
STANDARD
 70
     0
 40
0.0
 41
1.0
 50
0.0
 71
     0
 42
2.5
  3
txt
  4

  0
ENDTAB
  0
TABLE
  2
VIEW
  5
6
330
0
100
AcDbSymbolTable
 70
     0
  0
ENDTAB
  0
TABLE
  2
UCS
  5
7
330
0
100
AcDbSymbolTable
 70
     0
  0
ENDTAB
  0
TABLE
  2
APPID
  5
9
330
0
100
AcDbSymbolTable
 70
     2
  0
APPID
  5
12
330
9
100
AcDbSymbolTableRecord
100
AcDbRegAppTableRecord
  2
ACAD
 70
     0
  0
ENDTAB
  0
TABLE
  2
DIMSTYLE
  5
A
330
0
100
AcDbSymbolTable
 70
     1
  0
DIMSTYLE
105
27
330
A
100
AcDbSymbolTableRecord
100
AcDbDimStyleTableRecord
  2
ISO-25
 70
     0
  3

  4

  5

  6

  7

 40
1.0
 41
2.5
 42
0.625
 43
3.75
 44
1.25
 45
0.0
 46
0.0
 47
0.0
 48
0.0
140
2.5
141
2.5
142
0.0
143
0.03937007874016
144
1.0
145
0.0
146
1.0
147
0.625
 71
     0
 72
     0
 73
     0
 74
     0
 75
     0
 76
     0
 77
     1
 78
     8
170
     0
171
     3
172
     1
173
     0
174
     0
175
     0
176
     0
177
     0
178
     0
270
     2
271
     2
272
     2
273
     2
274
     3
340
11
275
     0
280
     0
281
     0
282
     0
283
     0
284
     8
285
     0
286
     0
287
     3
288
     0
  0
ENDTAB
  0
TABLE
  2
BLOCK_RECORD
  5
1
330
0
100
AcDbSymbolTable
 70
     1
  0
BLOCK_RECORD
  5
1F
330
1
100
AcDbSymbolTableRecord
100
AcDbBlockTableRecord
  2
*MODEL_SPACE
  0
BLOCK_RECORD
  5
1B
330
1
100
AcDbSymbolTableRecord
100
AcDbBlockTableRecord
  2
*PAPER_SPACE
  0
ENDTAB
  0
ENDSEC
  0
SECTION
  2
BLOCKS
  0
BLOCK
  5
20
330
1F
100
AcDbEntity
  8
0
100
AcDbBlockBegin
  2
*MODEL_SPACE
 70
     0
 10
0.0
 20
0.0
 30
0.0
  3
*MODEL_SPACE
  1

  0
ENDBLK
  5
21
330
1F
100
AcDbEntity
  8
0
100
AcDbBlockEnd
  0
BLOCK
  5
1C
330
1B
100
AcDbEntity
 67
     1
  8
0
100
AcDbBlockBegin
  2
*PAPER_SPACE
  1

  0
ENDBLK
  5
1D
330
1B
100
AcDbEntity
 67
     1
  8
0
100
AcDbBlockEnd
  0
ENDSEC
  0
SECTION
  2
ENTITIES
  0
LINE
  5
100
100
AcDbEntity
  8
Calque_1
 62
7
100
AcDbLine
 10
7.641720
 20
327.641713
 30
0.0
 11
22.641721
 21
327.641713
 31
0.0
  0
SPLINE
  5
101
100
AcDbEntity
  8
Calque_1
 62
7
100
AcDbSpline
 70
8
 71
3
 72
8
 73
4
 74
0
 40
0
 40
0
 40
0
 40
0
 40
1
 40
1
 40
1
 40
1
 10
22.641721
 20
327.641713
 30
0.0
 10
27.413072
 20
327.641713
 30
0.0
 10
30.141722
 20
324.450684
 30
0.0
 10
30.141722
 20
320.141713
 30
0.0
  0
LINE
  5
102
100
AcDbEntity
  8
Calque_1
 62
7
100
AcDbLine
 10
30.141722
 20
320.141713
 30
0.0
 11
30.141722
 21
35.141710
 31
0.0
  0
SPLINE
  5
103
100
AcDbEntity
  8
Calque_1
 62
7
100
AcDbSpline
 70
8
 71
3
 72
8
 73
4
 74
0
 40
0
 40
0
 40
0
 40
0
 40
1
 40
1
 40
1
 40
1
 10
30.141722
 20
35.141710
 30
0.0
 10
30.141722
 20
30.832741
 30
0.0
 10
27.413072
 20
27.641711
 30
0.0
 10
22.641721
 20
27.641711
 30
0.0
  0
LINE
  5
104
100
AcDbEntity
  8
Calque_1
 62
7
100
AcDbLine
 10
22.641721
 20
27.641711
 30
0.0
 11
7.641720
 21
27.641711
 31
0.0
  0
SPLINE
  5
105
100
AcDbEntity
  8
Calque_1
 62
7
100
AcDbSpline
 70
8
 71
3
 72
8
 73
4
 74
0
 40
0
 40
0
 40
0
 40
0
 40
1
 40
1
 40
1
 40
1
 10
7.641720
 20
27.641711
 30
0.0
 10
2.870368
 20
27.641711
 30
0.0
 10
0.141720
 20
30.832741
 30
0.0
 10
0.141720
 20
35.141710
 30
0.0
  0
LINE
  5
106
100
AcDbEntity
  8
Calque_1
 62
7
100
AcDbLine
 10
0.141720
 20
35.141710
 30
0.0
 11
0.141720
 21
320.141713
 31
0.0
  0
SPLINE
  5
107
100
AcDbEntity
  8
Calque_1
 62
7
100
AcDbSpline
 70
8
 71
3
 72
8
 73
4
 74
0
 40
0
 40
0
 40
0
 40
0
 40
1
 40
1
 40
1
 40
1
 10
0.141720
 20
320.141713
 30
0.0
 10
0.141720
 20
324.450684
 30
0.0
 10
2.870368
 20
327.641713
 30
0.0
 10
7.641720
 20
327.641713
 30
0.0
  0
LINE
  5
108
100
AcDbEntity
  8
Calque_1
 62
7
100
AcDbLine
 10
7.641720
 20
327.641713
 30
0.0
 11
7.641720
 21
327.641713
 31
0.0
  0
LINE
  5
109
100
AcDbEntity
  8
Calque_1
 62
7
100
AcDbLine
 10
42.641722
 20
327.641711
 30
0.0
 11
57.641722
 21
327.641711
 31
0.0
  0
SPLINE
  5
10a
100
AcDbEntity
  8
Calque_1
 62
7
100
AcDbSpline
 70
8
 71
3
 72
8
 73
4
 74
0
 40
0
 40
0
 40
0
 40
0
 40
1
 40
1
 40
1
 40
1
 10
57.641722
 20
327.641711
 30
0.0
 10
62.413074
 20
327.641711
 30
0.0
 10
65.141724
 20
324.450683
 30
0.0
 10
65.141724
 20
320.141711
 30
0.0
  0
LINE
  5
10b
100
AcDbEntity
  8
Calque_1
 62
7
100
AcDbLine
 10
65.141724
 20
320.141711
 30
0.0
 11
65.141724
 21
35.141708
 31
0.0
  0
SPLINE
  5
10c
100
AcDbEntity
  8
Calque_1
 62
7
100
AcDbSpline
 70
8
 71
3
 72
8
 73
4
 74
0
 40
0
 40
0
 40
0
 40
0
 40
1
 40
1
 40
1
 40
1
 10
65.141724
 20
35.141708
 30
0.0
 10
65.141724
 20
30.832740
 30
0.0
 10
62.413074
 20
27.641709
 30
0.0
 10
57.641722
 20
27.641709
 30
0.0
  0
LINE
  5
10d
100
AcDbEntity
  8
Calque_1
 62
7
100
AcDbLine
 10
57.641722
 20
27.641709
 30
0.0
 11
42.641722
 21
27.641709
 31
0.0
  0
SPLINE
  5
10e
100
AcDbEntity
  8
Calque_1
 62
7
100
AcDbSpline
 70
8
 71
3
 72
8
 73
4
 74
0
 40
0
 40
0
 40
0
 40
0
 40
1
 40
1
 40
1
 40
1
 10
42.641722
 20
27.641709
 30
0.0
 10
37.870370
 20
27.641709
 30
0.0
 10
35.141722
 20
30.832740
 30
0.0
 10
35.141722
 20
35.141708
 30
0.0
  0
LINE
  5
10f
100
AcDbEntity
  8
Calque_1
 62
7
100
AcDbLine
 10
35.141722
 20
35.141708
 30
0.0
 11
35.141722
 21
320.141711
 31
0.0
  0
SPLINE
  5
110
100
AcDbEntity
  8
Calque_1
 62
7
100
AcDbSpline
 70
8
 71
3
 72
8
 73
4
 74
0
 40
0
 40
0
 40
0
 40
0
 40
1
 40
1
 40
1
 40
1
 10
35.141722
 20
320.141711
 30
0.0
 10
35.141722
 20
324.450683
 30
0.0
 10
37.870370
 20
327.641711
 30
0.0
 10
42.641722
 20
327.641711
 30
0.0
  0
LINE
  5
111
100
AcDbEntity
  8
Calque_1
 62
7
100
AcDbLine
 10
42.641722
 20
327.641711
 30
0.0
 11
42.641722
 21
327.641711
 31
0.0
  0
LINE
  5
112
100
AcDbEntity
  8
Calque_1
 62
7
100
AcDbLine
 10
77.641725
 20
327.641709
 30
0.0
 11
92.641726
 21
327.641709
 31
0.0
  0
SPLINE
  5
113
100
AcDbEntity
  8
Calque_1
 62
7
100
AcDbSpline
 70
8
 71
3
 72
8
 73
4
 74
0
 40
0
 40
0
 40
0
 40
0
 40
1
 40
1
 40
1
 40
1
 10
92.641726
 20
327.641709
 30
0.0
 10
97.413077
 20
327.641709
 30
0.0
 10
100.141727
 20
324.450681
 30
0.0
 10
100.141727
 20
320.141709
 30
0.0
  0
LINE
  5
114
100
AcDbEntity
  8
Calque_1
 62
7
100
AcDbLine
 10
100.141727
 20
320.141709
 30
0.0
 11
100.141727
 21
35.141706
 31
0.0
  0
SPLINE
  5
115
100
AcDbEntity
  8
Calque_1
 62
7
100
AcDbSpline
 70
8
 71
3
 72
8
 73
4
 74
0
 40
0
 40
0
 40
0
 40
0
 40
1
 40
1
 40
1
 40
1
 10
100.141727
 20
35.141706
 30
0.0
 10
100.141727
 20
30.832737
 30
0.0
 10
97.413077
 20
27.641707
 30
0.0
 10
92.641726
 20
27.641707
 30
0.0
  0
LINE
  5
116
100
AcDbEntity
  8
Calque_1
 62
7
100
AcDbLine
 10
92.641726
 20
27.641707
 30
0.0
 11
77.641725
 21
27.641707
 31
0.0
  0
SPLINE
  5
117
100
AcDbEntity
  8
Calque_1
 62
7
100
AcDbSpline
 70
8
 71
3
 72
8
 73
4
 74
0
 40
0
 40
0
 40
0
 40
0
 40
1
 40
1
 40
1
 40
1
 10
77.641725
 20
27.641707
 30
0.0
 10
72.870373
 20
27.641707
 30
0.0
 10
70.141725
 20
30.832737
 30
0.0
 10
70.141725
 20
35.141706
 30
0.0
  0
LINE
  5
118
100
AcDbEntity
  8
Calque_1
 62
7
100
AcDbLine
 10
70.141725
 20
35.141706
 30
0.0
 11
70.141725
 21
320.141709
 31
0.0
  0
SPLINE
  5
119
100
AcDbEntity
  8
Calque_1
 62
7
100
AcDbSpline
 70
8
 71
3
 72
8
 73
4
 74
0
 40
0
 40
0
 40
0
 40
0
 40
1
 40
1
 40
1
 40
1
 10
70.141725
 20
320.141709
 30
0.0
 10
70.141725
 20
324.450681
 30
0.0
 10
72.870373
 20
327.641709
 30
0.0
 10
77.641725
 20
327.641709
 30
0.0
  0
LINE
  5
11a
100
AcDbEntity
  8
Calque_1
 62
7
100
AcDbLine
 10
77.641725
 20
327.641709
 30
0.0
 11
77.641725
 21
327.641709
 31
0.0
  0
SPLINE
  5
11b
100
AcDbEntity
  8
Calque_1
 62
7
100
AcDbSpline
 70
8
 71
3
 72
8
 73
4
 74
0
 40
0
 40
0
 40
0
 40
0
 40
1
 40
1
 40
1
 40
1
 10
144.641729
 20
42.500599
 30
0.0
 10
144.641729
 20
31.454898
 30
0.0
 10
135.687419
 20
22.500608
 30
0.0
 10
124.641728
 20
22.500608
 30
0.0
  0
SPLINE
  5
11c
100
AcDbEntity
  8
Calque_1
 62
7
100
AcDbSpline
 70
8
 71
3
 72
8
 73
4
 74
0
 40
0
 40
0
 40
0
 40
0
 40
1
 40
1
 40
1
 40
1
 10
124.641728
 20
22.500608
 30
0.0
 10
113.596036
 20
22.500608
 30
0.0
 10
104.641729
 20
31.454898
 30
0.0
 10
104.641728
 20
42.500599
 30
0.0
  0
SPLINE
  5
11d
100
AcDbEntity
  8
Calque_1
 62
7
100
AcDbSpline
 70
8
 71
3
 72
8
 73
4
 74
0
 40
0
 40
0
 40
0
 40
0
 40
1
 40
1
 40
1
 40
1
 10
104.641728
 20
42.500599
 30
0.0
 10
104.641727
 20
47.747102
 30
0.0
 10
106.836834
 20
52.574296
 30
0.0
 10
110.141727
 20
56.141706
 30
0.0
  0
LINE
  5
11e
100
AcDbEntity
  8
Calque_1
 62
7
100
AcDbLine
 10
110.141727
 20
56.141706
 30
0.0
 11
110.141731
 21
290.966193
 31
0.0
  0
LINE
  5
11f
100
AcDbEntity
  8
Calque_1
 62
7
100
AcDbLine
 10
110.141731
 20
290.966193
 30
0.0
 11
124.756935
 21
302.641712
 31
0.0
  0
LINE
  5
120
100
AcDbEntity
  8
Calque_1
 62
7
100
AcDbLine
 10
124.756935
 20
302.641712
 30
0.0
 11
132.641732
 21
302.641712
 31
0.0
  0
SPLINE
  5
121
100
AcDbEntity
  8
Calque_1
 62
7
100
AcDbSpline
 70
8
 71
3
 72
8
 73
4
 74
0
 40
0
 40
0
 40
0
 40
0
 40
1
 40
1
 40
1
 40
1
 10
132.641732
 20
302.641712
 30
0.0
 10
137.413083
 20
302.641712
 30
0.0
 10
140.141732
 20
299.450684
 30
0.0
 10
140.141732
 20
295.141713
 30
0.0
  0
LINE
  5
122
100
AcDbEntity
  8
Calque_1
 62
7
100
AcDbLine
 10
140.141732
 20
295.141713
 30
0.0
 11
140.141729
 21
56.141706
 31
0.0
  0
SPLINE
  5
123
100
AcDbEntity
  8
Calque_1
 62
7
100
AcDbSpline
 70
8
 71
3
 72
8
 73
4
 74
0
 40
0
 40
0
 40
0
 40
0
 40
1
 40
1
 40
1
 40
1
 10
140.141729
 20
56.141706
 30
0.0
 10
142.926952
 20
52.705001
 30
0.0
 10
144.641729
 20
47.268868
 30
0.0
 10
144.641729
 20
42.500599
 30
0.0
  0
LINE
  5
124
100
AcDbEntity
  8
Calque_1
 62
7
100
AcDbLine
 10
144.641729
 20
42.500599
 30
0.0
 11
144.641729
 21
42.500599
 31
0.0
  0
LINE
  5
125
100
AcDbEntity
  8
Calque_1
 62
7
100
AcDbLine
 10
202.500012
 20
195.141709
 30
0.0
 11
217.500012
 21
195.141709
 31
0.0
  0
SPLINE
  5
126
100
AcDbEntity
  8
Calque_1
 62
7
100
AcDbSpline
 70
8
 71
3
 72
8
 73
4
 74
0
 40
0
 40
0
 40
0
 40
0
 40
1
 40
1
 40
1
 40
1
 10
217.500012
 20
195.141709
 30
0.0
 10
222.271363
 20
195.141709
 30
0.0
 10
225.000013
 20
191.950679
 30
0.0
 10
225.000013
 20
187.641707
 30
0.0
  0
LINE
  5
127
100
AcDbEntity
  8
Calque_1
 62
7
100
AcDbLine
 10
225.000013
 20
187.641707
 30
0.0
 11
225.000013
 21
7.641720
 31
0.0
  0
SPLINE
  5
128
100
AcDbEntity
  8
Calque_1
 62
7
100
AcDbSpline
 70
8
 71
3
 72
8
 73
4
 74
0
 40
0
 40
0
 40
0
 40
0
 40
1
 40
1
 40
1
 40
1
 10
225.000013
 20
7.641720
 30
0.0
 10
225.000013
 20
3.332751
 30
0.0
 10
222.271363
 20
0.141721
 30
0.0
 10
217.500012
 20
0.141721
 30
0.0
  0
LINE
  5
129
100
AcDbEntity
  8
Calque_1
 62
7
100
AcDbLine
 10
217.500012
 20
0.141721
 30
0.0
 11
202.500012
 21
0.141721
 31
0.0
  0
SPLINE
  5
12a
100
AcDbEntity
  8
Calque_1
 62
7
100
AcDbSpline
 70
8
 71
3
 72
8
 73
4
 74
0
 40
0
 40
0
 40
0
 40
0
 40
1
 40
1
 40
1
 40
1
 10
202.500012
 20
0.141721
 30
0.0
 10
197.728659
 20
0.141721
 30
0.0
 10
195.000011
 20
3.332751
 30
0.0
 10
195.000011
 20
7.641720
 30
0.0
  0
LINE
  5
12b
100
AcDbEntity
  8
Calque_1
 62
7
100
AcDbLine
 10
195.000011
 20
7.641720
 30
0.0
 11
195.141737
 21
82.641734
 31
0.0
  0
LINE
  5
12c
100
AcDbEntity
  8
Calque_1
 62
7
100
AcDbLine
 10
195.141737
 20
82.641734
 30
0.0
 11
210.141738
 21
82.641734
 31
0.0
  0
LINE
  5
12d
100
AcDbEntity
  8
Calque_1
 62
7
100
AcDbLine
 10
210.141738
 20
82.641734
 30
0.0
 11
210.141738
 21
87.641735
 31
0.0
  0
LINE
  5
12e
100
AcDbEntity
  8
Calque_1
 62
7
100
AcDbLine
 10
210.141738
 20
87.641735
 30
0.0
 11
195.141737
 21
87.641735
 31
0.0
  0
LINE
  5
12f
100
AcDbEntity
  8
Calque_1
 62
7
100
AcDbLine
 10
195.141737
 20
87.641735
 30
0.0
 11
195.000012
 21
187.641707
 31
0.0
  0
SPLINE
  5
130
100
AcDbEntity
  8
Calque_1
 62
7
100
AcDbSpline
 70
8
 71
3
 72
8
 73
4
 74
0
 40
0
 40
0
 40
0
 40
0
 40
1
 40
1
 40
1
 40
1
 10
195.000012
 20
187.641707
 30
0.0
 10
194.993905
 20
191.950673
 30
0.0
 10
197.728659
 20
195.141709
 30
0.0
 10
202.500012
 20
195.141709
 30
0.0
  0
LINE
  5
131
100
AcDbEntity
  8
Calque_1
 62
7
100
AcDbLine
 10
202.500012
 20
195.141709
 30
0.0
 11
202.500012
 21
195.141709
 31
0.0
  0
SPLINE
  5
132
100
AcDbEntity
  8
Calque_1
 62
7
100
AcDbSpline
 70
8
 71
3
 72
8
 73
4
 74
0
 40
0
 40
0
 40
0
 40
0
 40
1
 40
1
 40
1
 40
1
 10
189.641732
 20
42.500599
 30
0.0
 10
189.641732
 20
31.454898
 30
0.0
 10
180.687423
 20
22.500608
 30
0.0
 10
169.641731
 20
22.500608
 30
0.0
  0
SPLINE
  5
133
100
AcDbEntity
  8
Calque_1
 62
7
100
AcDbSpline
 70
8
 71
3
 72
8
 73
4
 74
0
 40
0
 40
0
 40
0
 40
0
 40
1
 40
1
 40
1
 40
1
 10
169.641731
 20
22.500608
 30
0.0
 10
158.596039
 20
22.500608
 30
0.0
 10
149.641732
 20
31.454898
 30
0.0
 10
149.641731
 20
42.500599
 30
0.0
  0
SPLINE
  5
134
100
AcDbEntity
  8
Calque_1
 62
7
100
AcDbSpline
 70
8
 71
3
 72
8
 73
4
 74
0
 40
0
 40
0
 40
0
 40
0
 40
1
 40
1
 40
1
 40
1
 10
149.641731
 20
42.500599
 30
0.0
 10
149.641730
 20
47.747102
 30
0.0
 10
151.836837
 20
52.574296
 30
0.0
 10
155.141730
 20
56.141706
 30
0.0
  0
LINE
  5
135
100
AcDbEntity
  8
Calque_1
 62
7
100
AcDbLine
 10
155.141730
 20
56.141706
 30
0.0
 11
155.141734
 21
290.966193
 31
0.0
  0
LINE
  5
136
100
AcDbEntity
  8
Calque_1
 62
7
100
AcDbLine
 10
155.141734
 20
290.966193
 30
0.0
 11
169.756938
 21
302.641712
 31
0.0
  0
LINE
  5
137
100
AcDbEntity
  8
Calque_1
 62
7
100
AcDbLine
 10
169.756938
 20
302.641712
 30
0.0
 11
177.641735
 21
302.641712
 31
0.0
  0
SPLINE
  5
138
100
AcDbEntity
  8
Calque_1
 62
7
100
AcDbSpline
 70
8
 71
3
 72
8
 73
4
 74
0
 40
0
 40
0
 40
0
 40
0
 40
1
 40
1
 40
1
 40
1
 10
177.641735
 20
302.641712
 30
0.0
 10
182.413086
 20
302.641712
 30
0.0
 10
185.141735
 20
299.450684
 30
0.0
 10
185.141735
 20
295.141713
 30
0.0
  0
LINE
  5
139
100
AcDbEntity
  8
Calque_1
 62
7
100
AcDbLine
 10
185.141735
 20
295.141713
 30
0.0
 11
185.141732
 21
56.141706
 31
0.0
  0
SPLINE
  5
13a
100
AcDbEntity
  8
Calque_1
 62
7
100
AcDbSpline
 70
8
 71
3
 72
8
 73
4
 74
0
 40
0
 40
0
 40
0
 40
0
 40
1
 40
1
 40
1
 40
1
 10
185.141732
 20
56.141706
 30
0.0
 10
187.926955
 20
52.705001
 30
0.0
 10
189.641732
 20
47.268868
 30
0.0
 10
189.641732
 20
42.500599
 30
0.0
  0
LINE
  5
13b
100
AcDbEntity
  8
Calque_1
 62
7
100
AcDbLine
 10
189.641732
 20
42.500599
 30
0.0
 11
189.641732
 21
42.500599
 31
0.0
  0
LINE
  5
13c
100
AcDbEntity
  8
Calque_1
 62
7
100
AcDbLine
 10
237.500015
 20
195.141709
 30
0.0
 11
252.500015
 21
195.141709
 31
0.0
  0
SPLINE
  5
13d
100
AcDbEntity
  8
Calque_1
 62
7
100
AcDbSpline
 70
8
 71
3
 72
8
 73
4
 74
0
 40
0
 40
0
 40
0
 40
0
 40
1
 40
1
 40
1
 40
1
 10
252.500015
 20
195.141709
 30
0.0
 10
257.271366
 20
195.141709
 30
0.0
 10
260.000017
 20
191.950679
 30
0.0
 10
260.000017
 20
187.641707
 30
0.0
  0
LINE
  5
13e
100
AcDbEntity
  8
Calque_1
 62
7
100
AcDbLine
 10
260.000017
 20
187.641707
 30
0.0
 11
260.000017
 21
7.641720
 31
0.0
  0
SPLINE
  5
13f
100
AcDbEntity
  8
Calque_1
 62
7
100
AcDbSpline
 70
8
 71
3
 72
8
 73
4
 74
0
 40
0
 40
0
 40
0
 40
0
 40
1
 40
1
 40
1
 40
1
 10
260.000017
 20
7.641720
 30
0.0
 10
260.000017
 20
3.332751
 30
0.0
 10
257.271366
 20
0.141721
 30
0.0
 10
252.500015
 20
0.141721
 30
0.0
  0
LINE
  5
140
100
AcDbEntity
  8
Calque_1
 62
7
100
AcDbLine
 10
252.500015
 20
0.141721
 30
0.0
 11
237.500015
 21
0.141721
 31
0.0
  0
SPLINE
  5
141
100
AcDbEntity
  8
Calque_1
 62
7
100
AcDbSpline
 70
8
 71
3
 72
8
 73
4
 74
0
 40
0
 40
0
 40
0
 40
0
 40
1
 40
1
 40
1
 40
1
 10
237.500015
 20
0.141721
 30
0.0
 10
232.728662
 20
0.141721
 30
0.0
 10
230.000015
 20
3.332751
 30
0.0
 10
230.000015
 20
7.641720
 30
0.0
  0
LINE
  5
142
100
AcDbEntity
  8
Calque_1
 62
7
100
AcDbLine
 10
230.000015
 20
7.641720
 30
0.0
 11
230.141741
 21
82.641734
 31
0.0
  0
LINE
  5
143
100
AcDbEntity
  8
Calque_1
 62
7
100
AcDbLine
 10
230.141741
 20
82.641734
 30
0.0
 11
245.141741
 21
82.641734
 31
0.0
  0
LINE
  5
144
100
AcDbEntity
  8
Calque_1
 62
7
100
AcDbLine
 10
245.141741
 20
82.641734
 30
0.0
 11
245.141741
 21
87.641735
 31
0.0
  0
LINE
  5
145
100
AcDbEntity
  8
Calque_1
 62
7
100
AcDbLine
 10
245.141741
 20
87.641735
 30
0.0
 11
230.141741
 21
87.641735
 31
0.0
  0
LINE
  5
146
100
AcDbEntity
  8
Calque_1
 62
7
100
AcDbLine
 10
230.141741
 20
87.641735
 30
0.0
 11
230.000015
 21
187.641707
 31
0.0
  0
SPLINE
  5
147
100
AcDbEntity
  8
Calque_1
 62
7
100
AcDbSpline
 70
8
 71
3
 72
8
 73
4
 74
0
 40
0
 40
0
 40
0
 40
0
 40
1
 40
1
 40
1
 40
1
 10
230.000015
 20
187.641707
 30
0.0
 10
229.993908
 20
191.950673
 30
0.0
 10
232.728663
 20
195.141709
 30
0.0
 10
237.500015
 20
195.141709
 30
0.0
  0
LINE
  5
148
100
AcDbEntity
  8
Calque_1
 62
7
100
AcDbLine
 10
237.500015
 20
195.141709
 30
0.0
 11
237.500015
 21
195.141709
 31
0.0
  0
LINE
  5
149
100
AcDbEntity
  8
Calque_1
 62
7
100
AcDbLine
 10
255.141745
 20
328.888073
 30
0.0
 11
255.141745
 21
316.113143
 31
0.0
  0
SPLINE
  5
14a
100
AcDbEntity
  8
Calque_1
 62
7
100
AcDbSpline
 70
8
 71
3
 72
8
 73
4
 74
0
 40
0
 40
0
 40
0
 40
0
 40
1
 40
1
 40
1
 40
1
 10
255.141745
 20
316.113143
 30
0.0
 10
255.141745
 20
311.341809
 30
0.0
 10
251.672782
 20
307.500624
 30
0.0
 10
247.363813
 20
307.500624
 30
0.0
  0
LINE
  5
14b
100
AcDbEntity
  8
Calque_1
 62
7
100
AcDbLine
 10
247.363813
 20
307.500624
 30
0.0
 11
142.919659
 21
307.500624
 31
0.0
  0
SPLINE
  5
14c
100
AcDbEntity
  8
Calque_1
 62
7
100
AcDbSpline
 70
8
 71
3
 72
8
 73
4
 74
0
 40
0
 40
0
 40
0
 40
0
 40
1
 40
1
 40
1
 40
1
 10
142.919659
 20
307.500624
 30
0.0
 10
138.610691
 20
307.500624
 30
0.0
 10
135.141728
 20
311.341809
 30
0.0
 10
135.141728
 20
316.113143
 30
0.0
  0
LINE
  5
14d
100
AcDbEntity
  8
Calque_1
 62
7
100
AcDbLine
 10
135.141728
 20
316.113143
 30
0.0
 11
135.141728
 21
328.888073
 31
0.0
  0
SPLINE
  5
14e
100
AcDbEntity
  8
Calque_1
 62
7
100
AcDbSpline
 70
8
 71
3
 72
8
 73
4
 74
0
 40
0
 40
0
 40
0
 40
0
 40
1
 40
1
 40
1
 40
1
 10
135.141728
 20
328.888073
 30
0.0
 10
135.141728
 20
333.659406
 30
0.0
 10
138.610691
 20
337.500609
 30
0.0
 10
142.919659
 20
337.500609
 30
0.0
  0
LINE
  5
14f
100
AcDbEntity
  8
Calque_1
 62
7
100
AcDbLine
 10
142.919659
 20
337.500609
 30
0.0
 11
145.141736
 21
337.500609
 31
0.0
  0
LINE
  5
150
100
AcDbEntity
  8
Calque_1
 62
7
100
AcDbLine
 10
145.141736
 20
337.500609
 30
0.0
 11
145.141736
 21
322.500622
 31
0.0
  0
LINE
  5
151
100
AcDbEntity
  8
Calque_1
 62
7
100
AcDbLine
 10
145.141736
 20
322.500622
 30
0.0
 11
150.141726
 21
322.500622
 31
0.0
  0
LINE
  5
152
100
AcDbEntity
  8
Calque_1
 62
7
100
AcDbLine
 10
150.141726
 20
322.500622
 30
0.0
 11
150.141726
 21
337.500609
 31
0.0
  0
LINE
  5
153
100
AcDbEntity
  8
Calque_1
 62
7
100
AcDbLine
 10
150.141726
 20
337.500609
 30
0.0
 11
240.141718
 21
337.500609
 31
0.0
  0
LINE
  5
154
100
AcDbEntity
  8
Calque_1
 62
7
100
AcDbLine
 10
240.141718
 20
337.500609
 30
0.0
 11
240.141718
 21
322.500622
 31
0.0
  0
LINE
  5
155
100
AcDbEntity
  8
Calque_1
 62
7
100
AcDbLine
 10
240.141718
 20
322.500622
 30
0.0
 11
245.141736
 21
322.500622
 31
0.0
  0
LINE
  5
156
100
AcDbEntity
  8
Calque_1
 62
7
100
AcDbLine
 10
245.141736
 20
322.500622
 30
0.0
 11
245.141736
 21
337.500609
 31
0.0
  0
LINE
  5
157
100
AcDbEntity
  8
Calque_1
 62
7
100
AcDbLine
 10
245.141736
 20
337.500609
 30
0.0
 11
247.363813
 21
337.500609
 31
0.0
  0
SPLINE
  5
158
100
AcDbEntity
  8
Calque_1
 62
7
100
AcDbSpline
 70
8
 71
3
 72
8
 73
4
 74
0
 40
0
 40
0
 40
0
 40
0
 40
1
 40
1
 40
1
 40
1
 10
247.363813
 20
337.500609
 30
0.0
 10
251.672782
 20
337.500606
 30
0.0
 10
255.141745
 20
333.659406
 30
0.0
 10
255.141745
 20
328.888073
 30
0.0
  0
LINE
  5
159
100
AcDbEntity
  8
Calque_1
 62
7
100
AcDbLine
 10
255.141745
 20
328.888073
 30
0.0
 11
255.141745
 21
328.888073
 31
0.0
  0
ENDSEC
  0
SECTION
  2
OBJECTS
  0
DICTIONARY
  5
C
330
0
100
AcDbDictionary
  3
ACAD_GROUP
350
D
  3
ACAD_MLINESTYLE
350
17
  0
DICTIONARY
  5
D
330
C
100
AcDbDictionary
  0
DICTIONARY
  5
1A
330
C
100
AcDbDictionary
  0
DICTIONARY
  5
17
330
C
100
AcDbDictionary
  3
STANDARD
350
18
  0
DICTIONARY
  5
19
330
C
100
AcDbDictionary
  0
ENDSEC
  0
EOF
